<svg width="25" height="25" viewBox="0 0 25 25" fill="none" xmlns="http://www.w3.org/2000/svg">
<path d="M12.5 12.5C10.8958 12.5 9.52255 11.9288 8.38019 10.7865C7.23783 9.64411 6.66665 8.27084 6.66665 6.66668C6.66665 5.06251 7.23783 3.68925 8.38019 2.54689C9.52255 1.40452 10.8958 0.833344 12.5 0.833344C14.1041 0.833344 15.4774 1.40452 16.6198 2.54689C17.7621 3.68925 18.3333 5.06251 18.3333 6.66668C18.3333 8.27084 17.7621 9.64411 16.6198 10.7865C15.4774 11.9288 14.1041 12.5 12.5 12.5ZM0.833313 24.1667V20.0833C0.833313 19.257 1.04599 18.4974 1.47133 17.8047C1.89668 17.112 2.46179 16.5833 3.16665 16.2188C4.67359 15.4653 6.20484 14.9002 7.7604 14.5234C9.31595 14.1467 10.8958 13.9583 12.5 13.9583C14.1041 13.9583 15.684 14.1467 17.2396 14.5234C18.7951 14.9002 20.3264 15.4653 21.8333 16.2188C22.5382 16.5833 23.1033 17.112 23.5286 17.8047C23.954 18.4974 24.1666 19.257 24.1666 20.0833V24.1667H0.833313ZM3.74998 21.25H21.25V20.0833C21.25 19.816 21.1831 19.5729 21.0495 19.3542C20.9158 19.1354 20.7396 18.9653 20.5208 18.8438C19.2083 18.1875 17.8837 17.6953 16.5469 17.3672C15.21 17.0391 13.8611 16.875 12.5 16.875C11.1389 16.875 9.78991 17.0391 8.4531 17.3672C7.1163 17.6953 5.79165 18.1875 4.47915 18.8438C4.2604 18.9653 4.08418 19.1354 3.9505 19.3542C3.81682 19.5729 3.74998 19.816 3.74998 20.0833V21.25ZM12.5 9.58334C13.3021 9.58334 13.9887 9.29775 14.5599 8.72657C15.1311 8.15539 15.4166 7.46876 15.4166 6.66668C15.4166 5.86459 15.1311 5.17796 14.5599 4.60678C13.9887 4.0356 13.3021 3.75001 12.5 3.75001C11.6979 3.75001 11.0113 4.0356 10.4401 4.60678C9.8689 5.17796 9.58331 5.86459 9.58331 6.66668C9.58331 7.46876 9.8689 8.15539 10.4401 8.72657C11.0113 9.29775 11.6979 9.58334 12.5 9.58334Z" fill="#22262A"/>
</svg>
